PathFileType        4      (X/Y/Z)      C:\Users\pc\Desktop\IMUTRC\Sujet_01\Sujet_01_velo_80.trc         
DataRate	CameraRate	NumFrames	NumMarkers	Units	OrigDataRate	OrigDataStartFrame	OrigNumFrames
60.0	60.0	4	64	mm	60.0	739	984
Frame#	Time	pHipOrigin			pRightASI			pLeftASI			pRightCSI			pLeftCSI			pRightIschialTub			pLeftIschialTub			pSacrum			pL5SpinalProcess			pL3SpinalProcess			pT12SpinalProcess			pIJ			pT4SpinalProcess			pT8SpinalProcess			pPX			pC7SpinalProcess			pTopOfHead			pRightAuricularis			pLeftAuricularis			pBackOfHead			pRightAcromion			pLeftAcromion			pRightArmLatEpicondyle			pRightArmMedEpicondyle			pLeftArmLatEpicondyle			pLeftArmMedEpicondyle			pRightUlnarStyloid			pRightRadialStyloid			pRightOlecranon			pLeftUlnarStyloid			pLeftRadialStyloid			pLeftOlecranon			pRightTopOfHand			pRightPinky			pRightBallHand			pLeftTopOfHand			pLeftPinky			pLeftBallHand			pRightGreaterTrochanter			pRightKneeLatEpicondyle			pRightKneeMedEpicondyle			pRightPatella			pLeftGreaterTrochanter			pLeftKneeLatEpicondyle			pLeftKneeMedEpicondyle			pLeftPatella			pRightTibialTub			pRightLatMalleolus			pRightMedMalleolus			pLeftTibialTub			pLeftLatMalleolus			pLeftMedMalleolus			pRightHeelFoot			pRightFirstMetatarsal			pRightFifthMetatarsal			pRightPivotFoot			pRightHeelCenter			pRightToe			pLeftHeelFoot			pLeftFirstMetatarsal			pLeftFifthMetatarsal			pLeftPivotFoot			pLeftHeelCenter			pLeftToe			
		X1	Y1	Z1	X2	Y2	Z2	X3	Y3	Z3	X4	Y4	Z4	X5	Y5	Z5	X6	Y6	Z6	X7	Y7	Z7	X8	Y8	Z8	X9	Y9	Z9	X10	Y10	Z10	X11	Y11	Z11	X12	Y12	Z12	X13	Y13	Z13	X14	Y14	Z14	X15	Y15	Z15	X16	Y16	Z16	X17	Y17	Z17	X18	Y18	Z18	X19	Y19	Z19	X20	Y20	Z20	X21	Y21	Z21	X22	Y22	Z22	X23	Y23	Z23	X24	Y24	Z24	X25	Y25	Z25	X26	Y26	Z26	X27	Y27	Z27	X28	Y28	Z28	X29	Y29	Z29	X30	Y30	Z30	X31	Y31	Z31	X32	Y32	Z32	X33	Y33	Z33	X34	Y34	Z34	X35	Y35	Z35	X36	Y36	Z36	X37	Y37	Z37	X38	Y38	Z38	X39	Y39	Z39	X40	Y40	Z40	X41	Y41	Z41	X42	Y42	Z42	X43	Y43	Z43	X44	Y44	Z44	X45	Y45	Z45	X46	Y46	Z46	X47	Y47	Z47	X48	Y48	Z48	X49	Y49	Z49	X50	Y50	Z50	X51	Y51	Z51	X52	Y52	Z52	X53	Y53	Z53	X54	Y54	Z54	X55	Y55	Z55	X56	Y56	Z56	X57	Y57	Z57	X58	Y58	Z58	X59	Y59	Z59	X60	Y60	Z60	X61	Y61	Z61	X62	Y62	Z62	X63	Y63	Z63	X64	Y64	Z64	
739	12.3	0.0	1249.99432	7.654007714701862E-14	26.47355999999998	1329.59428	143.6026400000001	93.52398000000001	1348.59788	-95.7948499999999	-6.5138100000000145	1393.77624	116.35220000000008	48.644420000000004	1409.43329	-80.49635999999991	-63.584360000000004	1195.55321	31.254340000000067	-36.03511999999999	1203.32197	-67.16993999999993	-59.04262	1271.26879	-14.880169999999929	-22.94774	1365.27084	2.5696700000000807	27.011399999999995	1459.45218	21.872060000000094	78.64381	1542.27917	40.0987800000001	306.50767	1566.06355	100.75491000000014	207.36627	1662.1572	78.94261000000013	141.98912	1614.46893	60.118290000000115	219.97557	1497.10081	75.53630000000011	244.59658	1688.98932	90.29696000000013	448.13823	1822.07424	106.19304000000017	383.71724	1753.94814	173.00443000000018	390.58961	1746.05986	41.59277000000016	347.68212	1783.34993	103.26482000000016	193.50200999999998	1654.50795	257.0266100000001	291.20918	1633.23348	-81.09395999999985	257.80348999999995	1436.38493	337.10465000000016	240.11459999999997	1409.79185	293.65932000000015	406.96378	1419.17412	-79.71947999999986	367.58211	1391.86393	-54.97894999999987	346.36740999999995	1269.23696	422.6208300000001	376.42654999999996	1268.51984	390.5298500000001	232.94343999999998	1427.60025	331.48724000000016	551.76161	1272.8823	-76.73149999999985	553.91296	1275.51173	-32.86784999999985	385.03196	1408.05881	-90.23719999999987	513.1568199999999	1258.42044	479.9304100000001	432.3616599999999	1255.3727	481.1256100000001	382.64156999999994	1253.99822	434.87157000000013	704.9258	1239.17781	9.740840000000164	653.53243	1248.97841	-51.87144999999985	586.36249	1255.91053	-59.10237999999985	-38.903590000000015	1223.1622	142.76600000000008	142.70623999999998	943.42689	234.0191100000001	177.42664999999997	940.79747	176.5900100000001	186.39060999999998	966.19535	217.46567000000007	63.703870000000016	1253.81894	-133.98131999999993	377.14367	1138.48266	-44.58075999999988	362.20374	1132.74573	20.676870000000115	378.09983	1171.58955	-4.541739999999882	204.19900999999996	913.96535	232.70440000000008	134.63867999999997	540.9451	251.52871000000005	166.78940999999998	537.23999	200.85246000000006	398.4779	1092.94574	-21.274459999999884	200.13534000000004	814.40563	-186.9284399999999	190.39451000000003	794.5654	-130.93356999999992	91.79094999999998	424.95146	157.22786000000002	244.47705999999997	362.02446	243.87947000000005	182.08789999999996	356.58632	306.08935	230.97136999999998	350.31155	290.25302	120.41585999999997	407.20282	184.35877000000005	281.28905999999995	327.00526	338.65840000000003	79.83900000000003	718.07294	-181.37078999999994	208.74075	614.38981	-95.31676999999993	230.49329000000003	607.15888	-180.53414999999995	238.56085000000002	596.04357	-130.63476999999995	111.69094000000001	690.70299	-170.97258999999997	297.12539	555.46671	-112.22877999999993	
740	12.317	0.0	1249.99432	7.654007714701862E-14	27.36995999999998	1328.75765	143.84168000000008	92.86662000000001	1349.13572	-95.8546099999999	-5.856450000000014	1393.11888	117.18884000000008	47.98707000000001	1409.91136	-79.89875999999991	-63.34532000000001	1195.31417	31.373860000000068	-36.45343999999999	1203.68053	-67.22969999999992	-59.16214	1271.32855	-14.342339999999929	-23.0075	1365.21109	3.227030000000081	27.011399999999995	1459.39242	22.409900000000093	78.70357	1542.21941	40.3975800000001	306.68695	1566.24282	100.63539000000014	207.48579	1662.27671	78.52429000000012	142.10864	1614.46893	59.998770000000114	220.09509	1497.16057	75.89486000000011	244.77586	1689.16859	89.63960000000013	448.67607	1821.95472	104.04169000000017	384.3746	1754.36646	171.57019000000017	390.64937	1745.7013	40.15854000000016	348.10044	1783.40969	101.77082000000016	194.33864999999997	1655.22507	256.8473300000001	290.79086	1632.39685	-81.57202999999986	257.74372999999997	1437.10204	337.94129000000015	239.75604999999996	1410.32968	294.67524000000014	406.30642	1418.27773	-79.59995999999985	367.04428	1391.14681	-54.500879999999874	346.00884999999994	1269.71503	423.5172200000001	375.94847999999996	1268.81864	391.30673000000013	232.82391999999996	1428.31736	332.4433900000002	551.46281	1272.46398	-75.77533999999986	553.61416	1275.27269	-31.911699999999854	384.49412	1407.16242	-89.99815999999987	512.7384999999999	1258.59972	480.5877700000001	432.00310999999994	1255.61174	481.90248000000014	382.16348999999997	1254.35678	435.7082100000001	704.68676	1239.47661	10.876270000000163	653.35315	1248.97841	-50.79576999999984	586.12345	1255.73126	-58.08645999999985	-38.485270000000014	1222.26581	142.7062400000001	134.33987999999997	935.18005	228.04314000000008	168.58219999999997	932.31158	170.31524000000007	178.62183999999996	956.75331	211.5494500000001	63.524600000000014	1256.32885	-133.80203999999992	381.38661	1155.21539	-42.48916999999988	366.2674	1148.64182	22.648940000000117	380.54998	1188.26252	-2.3903899999998806	195.53383999999997	904.70259	226.19059000000007	121.19273999999997	532.51897	243.58067000000005	152.92515999999998	528.63459	192.66538000000006	403.43795	1109.55895	-17.868159999999882	211.96777000000003	822.59272	-177.06808999999993	202.34645000000003	804.00744	-120.65489999999993	73.92278999999999	419.87188	147.30774000000002	223.91971999999998	349.77371	233.12272000000004	161.29151999999996	345.71005	295.15332	209.93593999999996	337.82177	279.31699	101.83057999999997	400.62925	174.19962000000004	259.1779599999999	311.88604	327.42357000000004	95.61557000000002	721.59877	-169.00051999999994	229.05905	625.56488	-81.03419999999993	250.93112000000002	617.37779	-166.13205999999994	259.53652	607.75648	-116.05339999999993	128.60294000000002	695.90208	-158.06448999999995	319.77433	570.22737	-96.99004999999993	
741	12.333	0.0	1249.99432	7.654007714701862E-14	28.087069999999983	1327.98077	144.14047000000008	92.32879000000001	1349.79307	-95.7948499999999	-5.318620000000014	1392.46152	118.02547000000008	47.508990000000004	1410.38944	-79.24140999999992	-63.16604000000001	1195.13489	31.373860000000068	-36.75223999999999	1204.09885	-67.28945999999993	-59.28165	1271.38831	-13.92401999999993	-23.0075	1365.15133	3.884380000000081	27.071159999999995	1459.33266	23.067260000000093	78.82309	1542.15965	40.8756600000001	306.86623	1566.24282	100.69515000000014	207.72483	1662.21695	78.40477000000013	142.22816	1614.40917	60.17805000000011	220.21461	1497.10081	76.37294000000011	245.0149	1689.16859	89.34080000000013	449.27367	1821.59616	102.06962000000017	385.15147	1754.6055	170.37500000000017	390.70913	1745.16346	38.963350000000155	348.57852	1783.34993	100.63539000000016	195.05576999999997	1655.94218	256.9070900000001	290.4323	1631.56021	-81.75130999999986	257.74372999999997	1437.81916	339.0767200000002	239.51700999999997	1410.92728	296.0497100000002	405.70882	1417.44109	-79.12188999999987	366.5662	1390.48945	-53.604479999999874	345.76980999999995	1270.25287	424.7124200000001	375.64967999999993	1269.29671	392.4421600000001	232.70439999999996	1428.97472	333.6983500000002	551.46281	1272.16518	-74.46062999999985	553.5544	1275.21293	-30.656739999999854	383.95628	1406.26602	-89.28103999999988	512.4994599999999	1258.95828	481.6634400000001	431.76406999999995	1256.08981	482.9781600000001	381.9244499999999	1254.83486	436.8436400000001	704.74652	1240.25348	12.310500000000163	653.41291	1249.39672	-49.421299999999846	586.18321	1255.73126	-56.77174999999985	-38.186470000000014	1221.30965	142.5867200000001	127.46750999999998	928.60648	222.90380000000007	161.23175999999998	925.61849	164.8771000000001	172.22754999999998	949.22359	206.35036000000008	63.40508000000001	1258.71924	-133.68251999999993	384.61364	1170.57364	-40.69637999999988	369.37491	1163.28295	24.322210000000116	382.16349	1203.50125	-0.5378399999998794	188.06387999999998	897.1131	220.2743700000001	107.02967999999997	526.18444	234.97527000000002	138.28401999999997	522.18054	183.76118000000005	407.50161	1125.09648	-14.46185999999988	224.33804000000003	828.32965	-165.29541999999992	214.95576	811.29813	-108.34438999999993	55.33750999999999	416.76437	137.14859000000004	202.40620999999996	339.8536	222.18668000000005	139.59872999999996	337.52297	284.09777	187.88459999999998	327.90165	268.20168	82.40866999999999	396.14727	163.80143000000004	236.05093999999997	299.45602	315.94970000000006	112.70686000000002	722.07685	-154.29962999999995	251.1104	634.94716	-64.66002999999994	273.04222	625.86368	-149.63836999999995	282.30498	617.85587	-99.32067999999992	147.00894000000002	698.29247	-142.88551999999993	344.4551	583.91234	-79.65971999999991	
742	12.35	0.0	1249.99432	7.654007714701862E-14	28.684669999999983	1327.32341	144.3795100000001	91.91047000000002	1350.21139	-95.7350899999999	-4.840540000000014	1391.92369	118.68283000000008	47.15043000000001	1410.748	-78.70356999999991	-63.04652000000001	1194.95561	31.373860000000068	-37.05102999999999	1204.33789	-67.34921999999993	-59.34141	1271.38831	-13.565459999999929	-22.94774	1365.15133	4.36246000000008	27.190679999999997	1459.2729	23.605090000000093	79.06213	1541.98037	41.3537300000001	307.22478	1565.82451	100.93419000000014	208.20291	1661.91816	78.46453000000012	142.70624	1614.22989	60.417090000000115	220.45365	1496.80202	76.85102000000012	245.6125	1688.81004	89.34080000000013	450.17006	1820.81928	100.57563000000017	386.28691	1754.3067	169.53836000000018	391.06769	1744.20731	38.186470000000156	349.41515	1782.81209	99.85851000000015	195.83263999999997	1656.12146	257.14613000000014	290.37254	1630.66382	-81.75130999999986	258.04251999999997	1438.17772	340.15240000000017	239.57676999999998	1411.10656	297.3644300000002	405.52954	1416.48494	-78.46452999999987	366.44668	1389.71258	-52.64831999999987	345.94908999999996	1270.55167	425.9076100000001	375.76919999999996	1269.53575	393.57760000000013	232.94343999999998	1429.33328	334.89354000000014	551.76161	1271.92614	-73.20566999999986	553.79344	1275.09341	-29.401789999999853	383.83676	1405.36963	-88.56391999999987	512.6787399999998	1259.19732	482.7391200000001	431.94334999999995	1256.32885	484.1135900000001	382.1037299999999	1255.0739	438.0388400000001	705.2246	1240.91084	13.684980000000163	653.83123	1249.69552	-48.04681999999984	586.54177	1255.6715	-55.457029999999854	-37.82791000000002	1220.65229	142.5269600000001	122.86600999999997	924.18426	219.13894000000008	156.27169999999998	921.13651	160.87320000000008	167.92484999999996	944.14401	202.5257300000001	63.16604000000002	1260.39251	-133.5629999999999	386.70523	1182.9439	-39.20237999999988	371.4665	1175.17514	25.816200000000116	383.00012	1215.75199	0.9561600000001214	182.74525999999997	891.31641	215.6131100000001	92.86661999999997	522.30006	226.42963000000003	123.58312999999997	518.17664	174.85698000000005	410.96768	1137.88506	-11.414109999999882	237.24614000000003	831.19812	-153.28370999999993	228.1029	815.66059	-95.85460999999991	37.05102999999998	416.2863	127.40775000000002	181.31102999999996	333.16051	211.37017000000006	118.62306999999997	332.44339	273.40078	166.49060999999998	321.26832	257.26565	63.40507999999998	394.35447	153.82155000000003	213.70079999999996	290.55182	304.65512	130.63477000000003	720.10477	-139.0011399999999	273.40078	642.35736	-47.74802999999992	295.51188	632.07869	-132.48732999999993	305.31247	625.86368	-82.05010999999992	166.07230000000004	698.41199	-127.10894999999994	369.19563	595.44597	-61.79155999999992	
